<svg width="19" height="30" viewBox="0 0 19 30" fill="none" xmlns="http://www.w3.org/2000/svg">
<path d="M5 2C5 1.44771 4.55228 1 4 1H2C1.44772 1 1 1.44771 1 2V28C1 28.5523 1.44772 29 2 29H4C4.55228 29 5 28.5523 5 28L5 17V13L5 2Z" fill="#1A453E"/>
<path d="M5 13H17C17.5523 13 18 13.4477 18 14V17V28C18 28.5523 17.5523 29 17 29H15C14.4477 29 14 28.5523 14 28V18C14 17.4477 13.5523 17 13 17H5M5 13L5 2C5 1.44771 4.55228 1 4 1H2C1.44772 1 1 1.44771 1 2V28C1 28.5523 1.44772 29 2 29H4C4.55228 29 5 28.5523 5 28L5 17M5 13V17" stroke="#AAAAAA" stroke-width="0.5"/>
</svg>
