<svg width="19" height="30" viewBox="0 0 19 30" fill="none" xmlns="http://www.w3.org/2000/svg">
<path d="M18 17V13H14H5H1V17H5H14H18Z" fill="#1A453E"/>
<path d="M14 17V28C14 28.5523 14.4477 29 15 29H17C17.5523 29 18 28.5523 18 28V17M14 17H5M14 17H18M18 17V13M5 13H1M5 13H14M5 13V6C5 5.44772 5.44771 5 6 5H13C13.5523 5 14 5.44772 14 6V13M18 13V2C18 1.44772 17.5523 1 17 1H5H2C1.44772 1 1 1.44772 1 2V13M18 13H14M5 17L5 28C5 28.5523 4.55228 29 4 29H2C1.44772 29 1 28.5523 1 28V17M5 17H1M1 13V17" stroke="#AAAAAA" stroke-width="0.5"/>
</svg>
