<svg width="19" height="30" viewBox="0 0 19 30" fill="none" xmlns="http://www.w3.org/2000/svg">
<path d="M17 29C17.5523 29 18 28.5523 18 28V17V14C18 13.4477 17.5523 13 17 13H14V17V28C14 28.5523 14.4477 29 15 29H17Z" fill="#1A453E"/>
<path d="M14 17V28C14 28.5523 14.4477 29 15 29H17C17.5523 29 18 28.5523 18 28V17V14C18 13.4477 17.5523 13 17 13H14M14 17H6C5.44771 17 5 17.4477 5 18L5 28C5 28.5523 4.55228 29 4 29H2C1.44772 29 1 28.5523 1 28V17V13V2C1 1.44772 1.44772 1 2 1H4C4.55228 1 5 1.44771 5 2L5 12C5 12.5523 5.44772 13 6 13H14M14 17V13" stroke="#AAAAAA" stroke-width="0.5"/>
</svg>
