<svg width="165" height="48" fill="none" xmlns="http://www.w3.org/2000/svg"><path d="M20.378 1.444c-.276.643-4.912 11.279-10.302 23.636C4.685 37.436.275 47.617.275 47.704c0 .087 2.495.124 5.544.083l5.543-.074 3.419-8.044 3.419-8.044h32.845l3.4 8.112 3.4 8.113h5.728c3.15 0 5.727-.05 5.727-.111S64.664 37.005 58.997 24.02L48.695.413 43.204.338 37.712.264l4.548 10.524c2.502 5.789 4.61 10.679 4.686 10.868.109.272-2.453.344-12.267.344-6.822 0-12.404-.071-12.404-.158 0-.087 1.983-4.787 4.406-10.444C29.105 5.741 31.16.924 31.248.694c.141-.366-.503-.419-5.103-.419H20.88l-.502 1.169m69.17 4.95c-.212.491-1.65 3.616-3.196 6.944-1.546 3.327-3.041 6.575-3.322 7.218l-.51 1.169h2.482l.98-2.063.979-2.062h8.09l.906 2.063.906 2.062h2.654l-2.134-4.606a2666.785 2666.785 0 0 1-3.742-8.113L92.034 5.5h-1.051c-.923 0-1.097.108-1.435.894m17.702 7.219v8.112h2.464l.074-5.91.075-5.909 4.661 5.909c4.386 5.56 4.716 5.91 5.569 5.91H121V5.5h-2.464l-.074 5.755-.074 5.756-4.538-5.755c-4.461-5.658-4.555-5.754-5.569-5.755L107.25 5.5v8.113m22.55 0v8.112h2.464l.074-5.93.075-5.93 4.675 5.929c4.371 5.545 4.732 5.929 5.568 5.93l.894.001V5.5h-2.189l-.074 5.91-.074 5.91-4.675-5.91c-4.6-5.816-4.69-5.91-5.706-5.91H129.8v8.113m21.45-6.875v1.237h5.786l-.074 5.706-.074 5.707-2.819.078-2.819.078v2.181H165v-2.181l-2.819-.078-2.818-.078-.075-5.707-.074-5.706H165V5.5h-13.75v1.238m-58.774 5.293c.72 1.626 1.306 3.049 1.304 3.163-.006.238-5.335.285-5.571.048-.177-.177 2.538-6.167 2.795-6.167.091 0 .753 1.33 1.472 2.956m16.996 22.138c-2.03 4.424-3.739 8.136-3.798 8.25-.058.113.466.206 1.165.206h1.272l.953-2.062.953-2.063h8.166l.927 2.062.928 2.062 1.322.001c.727 0 1.274-.093 1.216-.206-.059-.114-1.768-3.826-3.798-8.25l-3.69-8.043H113.163l-3.691 8.043m46.316-7.696c-2.338.961-3.31 2.426-3.095 4.661.23 2.396 1.659 3.521 5.706 4.49 3.306.791 4.356 2.386 2.71 4.114-.437.458-.882.55-2.668.55-2.244 0-2.096.058-4.912-1.925-.293-.207-.556-.071-1.051.543l-.661.819.706.737c2.021 2.11 6.366 2.907 8.971 1.646 1.742-.843 2.488-1.943 2.623-3.865.188-2.696-1.337-4.068-5.675-5.107-1.996-.477-3.27-1.259-3.36-2.061-.135-1.185.074-1.694.912-2.221 1.329-.838 3.728-.591 5.348.551l1.205.85.668-.759c.367-.417.672-.887.676-1.044.005-.157-.681-.704-1.525-1.216-1.329-.805-1.817-.941-3.644-1.016-1.246-.051-2.447.053-2.934.253m-71.363 8.04v8.112H86.9v-7.15h8.25v7.15h2.475V26.4H95.15v6.875H86.9V26.4h-2.475v8.113m45.375-3.112c0 5.806.34 7.533 1.824 9.267 2.544 2.973 8.063 2.742 10.455-.437 1.207-1.605 1.471-3.199 1.471-8.895V26.4h-2.435l-.089 5.719c-.098 6.323-.19 6.689-1.96 7.768-1.116.681-3.291.707-4.582.056-1.852-.934-2.06-1.704-2.161-7.974l-.089-5.569H129.8v5.001m-14.287 1.215c.749 1.604 1.362 3.027 1.362 3.163 0 .135-1.289.246-2.865.246h-2.866l1.422-3.154c.782-1.734 1.458-3.157 1.504-3.162.045-.005.694 1.303 1.443 2.907" fill="#3B3B3B" fill-rule="evenodd"/></svg>