<svg width="14" height="14" viewBox="0 0 14 14" fill="none" xmlns="http://www.w3.org/2000/svg">
<path d="M11.7005 2.27332C11.0893 1.65594 10.3613 1.16643 9.55895 0.833356C8.75658 0.500278 7.89593 0.330296 7.02719 0.333322C3.38719 0.333322 0.420521 3.29999 0.420521 6.93999C0.420521 8.10666 0.727188 9.23999 1.30052 10.24L0.367188 13.6667L3.86719 12.7467C4.83385 13.2733 5.92052 13.5533 7.02719 13.5533C10.6672 13.5533 13.6339 10.5867 13.6339 6.94666C13.6339 5.17999 12.9472 3.51999 11.7005 2.27332ZM7.02719 12.4333C6.04052 12.4333 5.07385 12.1667 4.22719 11.6667L4.02719 11.5467L1.94719 12.0933L2.50052 10.0667L2.36719 9.85999C1.81902 8.98463 1.52795 7.97282 1.52719 6.93999C1.52719 3.91332 3.99385 1.44666 7.02052 1.44666C8.48719 1.44666 9.86719 2.01999 10.9005 3.05999C11.4122 3.5693 11.8177 4.1751 12.0934 4.84227C12.3692 5.50945 12.5099 6.22473 12.5072 6.94666C12.5205 9.97332 10.0539 12.4333 7.02719 12.4333ZM10.0405 8.32666C9.87385 8.24666 9.06052 7.84666 8.91385 7.78666C8.76052 7.73332 8.65385 7.70666 8.54052 7.86666C8.42719 8.03332 8.11385 8.40666 8.02052 8.51332C7.92719 8.62666 7.82719 8.63999 7.66052 8.55332C7.49385 8.47332 6.96052 8.29332 6.33385 7.73332C5.84052 7.29332 5.51385 6.75332 5.41385 6.58666C5.32052 6.41999 5.40052 6.33332 5.48719 6.24666C5.56052 6.17332 5.65385 6.05332 5.73385 5.95999C5.81385 5.86665 5.84719 5.79332 5.90052 5.68666C5.95385 5.57332 5.92719 5.47999 5.88719 5.39999C5.84719 5.31999 5.51385 4.50666 5.38052 4.17332C5.24719 3.85332 5.10719 3.89332 5.00719 3.88666H4.68719C4.57385 3.88666 4.40052 3.92666 4.24719 4.09332C4.10052 4.25999 3.67385 4.65999 3.67385 5.47332C3.67385 6.28666 4.26719 7.07332 4.34719 7.17999C4.42719 7.29332 5.51385 8.95999 7.16719 9.67332C7.56052 9.84666 7.86719 9.94666 8.10719 10.02C8.50052 10.1467 8.86052 10.1267 9.14719 10.0867C9.46719 10.04 10.1272 9.68666 10.2605 9.29999C10.4005 8.91332 10.4005 8.58666 10.3539 8.51332C10.3072 8.43999 10.2072 8.40666 10.0405 8.32666Z" fill="white"/>
</svg>
